<?xml version="1.0" ?><svg viewBox="0 0 24 24" xmlns="http://www.w3.org/2000/svg"><g data-name="30. Crown" id="_30._Crown"><path d="M24,9a3,3,0,0,0-6,0,2.964,2.964,0,0,0,.061.6l-1.65.988L14.154,6.08a3,3,0,1,0-4.308,0L7.589,10.588,5.939,9.6A2.964,2.964,0,0,0,6,9a3,3,0,1,0-3.684,2.914l.6,5.409A2,2,0,0,0,2,19v2a2,2,0,0,0,2,2H20a2,2,0,0,0,2-2V19a2,2,0,0,0-.918-1.677l.6-5.409A3,3,0,0,0,24,9ZM21,8a1,1,0,1,1-1,1A1,1,0,0,1,21,8ZM12,3a1,1,0,1,1-1,1A1,1,0,0,1,12,3ZM8,13a1.023,1.023,0,0,0,.279-.04,1,1,0,0,0,.616-.512l2.747-5.484A2.993,2.993,0,0,0,12,7a2.993,2.993,0,0,0,.358-.036l2.747,5.484a1,1,0,0,0,.616.512A1.017,1.017,0,0,0,16,13a1,1,0,0,0,.514-.142l2.591-1.551a3.032,3.032,0,0,0,.591.382L19.105,17H4.895L4.3,11.689a3.032,3.032,0,0,0,.591-.382l2.591,1.551A1,1,0,0,0,8,13ZM3,8A1,1,0,1,1,2,9,1,1,0,0,1,3,8ZM4,21V19H20l0,2Z"/></g></svg>